dataset
version=1
nRows=19
nColumns=39
inDegrees=no
endheader
time	sternoclavicular_r2	sternoclavicular_r3	unrotscap_r3	unrotscap_r2	acromioclavicular_r2	acromioclavicular_r3	acromioclavicular_r1	unrothum_r1	unrothum_r3	unrothum_r2	elv_angle	shoulder_elv	shoulder1_r2	shoulder_rot	elbow_flexion	pro_sup	deviation	flexion	cmc_abduction	cmc_flexion	mp_flexion	ip_flexion	mcp2_flexion	mcp2_abduction	pm2_flexion	md2_flexion	mcp3_flexion	mcp3_abduction	pm3_flexion	md3_flexion	mcp4_flexion	mcp4_abduction	pm4_flexion	md4_flexion	mcp5_flexion	mcp5_abduction	pm5_flexion	md5_flexion
1.875000	-0.026451	-0.275140	0.109209	0.113314	0.091169	0.113749	-0.055295	-0.038545	0.055294	0.141534	0.128311	0.027437	0.146525	0.146525	1.428590	1.285352	0.000000	0.000000	0.000000	0.000000	0.000000	0.000000	0.000000	0.000000	0.000000	0.000000	0.000000	0.000000	0.000000	0.000000	0.000000	0.000000	0.000000	0.000000	0.000000	0.000000	0.000000	0.000000
1.880000	-0.026474	-0.275072	0.109121	0.113458	0.091317	0.113742	-0.055198	-0.038422	0.055344	0.141663	0.128473	0.027437	0.146525	0.146525	1.428089	1.285416	0.000000	0.000000	0.000000	0.000000	0.000000	0.000000	0.000000	0.000000	0.000000	0.000000	0.000000	0.000000	0.000000	0.000000	0.000000	0.000000	0.000000	0.000000	0.000000	0.000000	0.000000	0.000000
1.885000	-0.026496	-0.275005	0.109033	0.113602	0.091465	0.113735	-0.055101	-0.038297	0.055392	0.141793	0.128634	0.027437	0.146525	0.146525	1.427592	1.285479	0.000000	0.000000	0.000000	0.000000	0.000000	0.000000	0.000000	0.000000	0.000000	0.000000	0.000000	0.000000	0.000000	0.000000	0.000000	0.000000	0.000000	0.000000	0.000000	0.000000	0.000000	0.000000
1.890000	-0.026519	-0.274939	0.108947	0.113746	0.091614	0.113727	-0.055006	-0.038171	0.055437	0.141923	0.128796	0.027437	0.146525	0.146525	1.427099	1.285541	0.000000	0.000000	0.000000	0.000000	0.000000	0.000000	0.000000	0.000000	0.000000	0.000000	0.000000	0.000000	0.000000	0.000000	0.000000	0.000000	0.000000	0.000000	0.000000	0.000000	0.000000	0.000000
1.895000	-0.026541	-0.274875	0.108861	0.113891	0.091764	0.113719	-0.054912	-0.038043	0.055481	0.142054	0.128958	0.027437	0.146525	0.146525	1.426610	1.285602	0.000000	0.000000	0.000000	0.000000	0.000000	0.000000	0.000000	0.000000	0.000000	0.000000	0.000000	0.000000	0.000000	0.000000	0.000000	0.000000	0.000000	0.000000	0.000000	0.000000	0.000000	0.000000
1.900000	-0.026563	-0.274813	0.108776	0.114036	0.091914	0.113710	-0.054819	-0.037915	0.055522	0.142185	0.129119	0.027437	0.146525	0.146525	1.426127	1.285662	0.000000	0.000000	0.000000	0.000000	0.000000	0.000000	0.000000	0.000000	0.000000	0.000000	0.000000	0.000000	0.000000	0.000000	0.000000	0.000000	0.000000	0.000000	0.000000	0.000000	0.000000	0.000000
1.905000	-0.026585	-0.274753	0.108692	0.114181	0.092064	0.113700	-0.054728	-0.037785	0.055560	0.142317	0.129280	0.027437	0.146525	0.146525	1.425651	1.285721	0.000000	0.000000	0.000000	0.000000	0.000000	0.000000	0.000000	0.000000	0.000000	0.000000	0.000000	0.000000	0.000000	0.000000	0.000000	0.000000	0.000000	0.000000	0.000000	0.000000	0.000000	0.000000
1.910000	-0.026607	-0.274694	0.108609	0.114327	0.092215	0.113690	-0.054639	-0.037655	0.055596	0.142448	0.129441	0.027437	0.146525	0.146525	1.425182	1.285778	0.000000	0.000000	0.000000	0.000000	0.000000	0.000000	0.000000	0.000000	0.000000	0.000000	0.000000	0.000000	0.000000	0.000000	0.000000	0.000000	0.000000	0.000000	0.000000	0.000000	0.000000	0.000000
1.915000	-0.026629	-0.274637	0.108527	0.114473	0.092366	0.113679	-0.054552	-0.037525	0.055629	0.142580	0.129602	0.027437	0.146525	0.146525	1.424722	1.285835	0.000000	0.000000	0.000000	0.000000	0.000000	0.000000	0.000000	0.000000	0.000000	0.000000	0.000000	0.000000	0.000000	0.000000	0.000000	0.000000	0.000000	0.000000	0.000000	0.000000	0.000000	0.000000
1.920000	-0.026651	-0.274583	0.108447	0.114619	0.092517	0.113667	-0.054466	-0.037394	0.055660	0.142712	0.129762	0.027437	0.146525	0.146525	1.424272	1.285890	0.000000	0.000000	0.000000	0.000000	0.000000	0.000000	0.000000	0.000000	0.000000	0.000000	0.000000	0.000000	0.000000	0.000000	0.000000	0.000000	0.000000	0.000000	0.000000	0.000000	0.000000	0.000000
1.925000	-0.026672	-0.274531	0.108368	0.114764	0.092669	0.113655	-0.054384	-0.037262	0.055688	0.142845	0.129921	0.027437	0.146525	0.146525	1.423833	1.285944	0.000000	0.000000	0.000000	0.000000	0.000000	0.000000	0.000000	0.000000	0.000000	0.000000	0.000000	0.000000	0.000000	0.000000	0.000000	0.000000	0.000000	0.000000	0.000000	0.000000	0.000000	0.000000
1.930000	-0.026693	-0.274481	0.108291	0.114910	0.092820	0.113642	-0.054303	-0.037131	0.055714	0.142977	0.130080	0.027437	0.146525	0.146525	1.423406	1.285997	0.000000	0.000000	0.000000	0.000000	0.000000	0.000000	0.000000	0.000000	0.000000	0.000000	0.000000	0.000000	0.000000	0.000000	0.000000	0.000000	0.000000	0.000000	0.000000	0.000000	0.000000	0.000000
1.935000	-0.026714	-0.274433	0.108216	0.115055	0.092971	0.113628	-0.054225	-0.037000	0.055737	0.143109	0.130238	0.027437	0.146525	0.146525	1.422992	1.286048	0.000000	0.000000	0.000000	0.000000	0.000000	0.000000	0.000000	0.000000	0.000000	0.000000	0.000000	0.000000	0.000000	0.000000	0.000000	0.000000	0.000000	0.000000	0.000000	0.000000	0.000000	0.000000
1.940000	-0.026734	-0.274389	0.108143	0.115200	0.093122	0.113613	-0.054150	-0.036870	0.055757	0.143241	0.130395	0.027437	0.146525	0.146525	1.422594	1.286098	0.000000	0.000000	0.000000	0.000000	0.000000	0.000000	0.000000	0.000000	0.000000	0.000000	0.000000	0.000000	0.000000	0.000000	0.000000	0.000000	0.000000	0.000000	0.000000	0.000000	0.000000	0.000000
1.945000	-0.026754	-0.274347	0.108071	0.115344	0.093272	0.113598	-0.054078	-0.036740	0.055774	0.143373	0.130550	0.027437	0.146525	0.146525	1.422212	1.286146	0.000000	0.000000	0.000000	0.000000	0.000000	0.000000	0.000000	0.000000	0.000000	0.000000	0.000000	0.000000	0.000000	0.000000	0.000000	0.000000	0.000000	0.000000	0.000000	0.000000	0.000000	0.000000
1.950000	-0.026774	-0.274308	0.108002	0.115488	0.093422	0.113582	-0.054009	-0.036611	0.055788	0.143505	0.130705	0.027437	0.146525	0.146525	1.421848	1.286193	0.000000	0.000000	0.000000	0.000000	0.000000	0.000000	0.000000	0.000000	0.000000	0.000000	0.000000	0.000000	0.000000	0.000000	0.000000	0.000000	0.000000	0.000000	0.000000	0.000000	0.000000	0.000000
1.955000	-0.026793	-0.274272	0.107936	0.115631	0.093572	0.113565	-0.053943	-0.036484	0.055800	0.143636	0.130857	0.027437	0.146525	0.146525	1.421504	1.286238	0.000000	0.000000	0.000000	0.000000	0.000000	0.000000	0.000000	0.000000	0.000000	0.000000	0.000000	0.000000	0.000000	0.000000	0.000000	0.000000	0.000000	0.000000	0.000000	0.000000	0.000000	0.000000
1.960000	-0.026812	-0.274239	0.107872	0.115773	0.093720	0.113547	-0.053881	-0.036358	0.055808	0.143767	0.131009	0.027437	0.146525	0.146525	1.421180	1.286282	0.000000	0.000000	0.000000	0.000000	0.000000	0.000000	0.000000	0.000000	0.000000	0.000000	0.000000	0.000000	0.000000	0.000000	0.000000	0.000000	0.000000	0.000000	0.000000	0.000000	0.000000	0.000000
1.965000	-0.026830	-0.274209	0.107810	0.115914	0.093868	0.113528	-0.053822	-0.036233	0.055814	0.143897	0.131158	0.027437	0.146525	0.146525	1.420879	1.286323	0.000000	0.000000	0.000000	0.000000	0.000000	0.000000	0.000000	0.000000	0.000000	0.000000	0.000000	0.000000	0.000000	0.000000	0.000000	0.000000	0.000000	0.000000	0.000000	0.000000	0.000000	0.000000
